<?xml version="1.0" encoding="UTF-8" standalone="no"?>
<svg width="128" height="128" viewBox="0 0 128 128" version="1.1" id="svg1">

   <path style="fill:none;stroke-width:1;stroke:#fff;" id="shellrect"
      d="M 20,50  C 20,40 20,40 30,40 L 98,40 C 108,40, 108,40 108,50 L 108,78 C 108,88 108,88 98,88 L 30,88 C 20,88 20,88, 20,78 z" />

   <path style="fill:none;stroke-width:1;stroke:#fff" id="letterc"
      d="M 74,59 C 74,57 68,54 64,54 C 59,54 54,59 54,64 C 54,69 59,74 64,74 C 68,74 74,71 74,69" />

   <circle style="fill:none;stroke-width:1;stroke:#fff" id="leftstick" cx="30" cy="50" r="3" />

   <circle style="fill:none;stroke-width:1;stroke:#fff" id="rightstick" cx="98" cy="50" r="3" />

   <path style="fill:none;stoke-width:1;stroke:#fff" id="screen" d="M 40,45 L 88,45 L 88,83 L 40,83 Z" />

</svg>